<svg width="20" height="21" viewBox="0 0 20 21" fill="none" xmlns="http://www.w3.org/2000/svg">
<path d="M9.11612 1.11612C9.60427 0.627961 10.3957 0.627961 10.8839 1.11612L18.8388 9.07107C19.327 9.55922 19.327 10.3507 18.8388 10.8388C18.3507 11.327 17.5592 11.327 17.0711 10.8388L10 3.76777L2.92893 10.8388C2.44078 11.327 1.64932 11.327 1.16116 10.8388C0.67301 10.3507 0.67301 9.55922 1.16116 9.07107L9.11612 1.11612ZM11.25 19C11.25 19.6904 10.6904 20.25 10 20.25C9.30964 20.25 8.75 19.6904 8.75 19L11.25 19ZM11.25 2L11.25 19L8.75 19L8.75 2L11.25 2Z" fill="#00C287"/>
</svg>
