<svg width="20" height="21" viewBox="0 0 20 21" fill="none" xmlns="http://www.w3.org/2000/svg">
<path d="M9.11612 19.8839C9.60427 20.372 10.3957 20.372 10.8839 19.8839L18.8388 11.9289C19.327 11.4408 19.327 10.6493 18.8388 10.1612C18.3507 9.67301 17.5592 9.67301 17.0711 10.1612L10 17.2322L2.92893 10.1612C2.44078 9.67301 1.64932 9.67301 1.16116 10.1612C0.67301 10.6493 0.67301 11.4408 1.16116 11.9289L9.11612 19.8839ZM11.25 2C11.25 1.30964 10.6904 0.75 10 0.75C9.30964 0.75 8.75 1.30964 8.75 2L11.25 2ZM11.25 19L11.25 2L8.75 2L8.75 19L11.25 19Z" fill="#E72D04"/>
</svg>
