<svg width="52" height="51" viewBox="0 0 52 51" fill="none" xmlns="http://www.w3.org/2000/svg">
<g clip-path="url(#clip0)">
<path d="M26 50.3181C40.3594 50.3181 52 39.2067 52 25.4999C52 11.7932 40.3594 0.681763 26 0.681763C11.6406 0.681763 0 11.7932 0 25.4999C0 39.2067 11.6406 50.3181 26 50.3181Z" fill="#8AC9FE"/>
<path d="M37.2642 3.12561C40.3159 7.19269 42.1127 12.1759 42.1127 17.5602C42.1127 31.2669 30.4721 42.3784 16.1127 42.3784C12.0772 42.3784 8.25656 41.5007 4.84863 39.9346C9.5656 46.2211 17.2813 50.3181 26.0001 50.3181C40.3596 50.3181 52.0001 39.2067 52.0001 25.5C52.0001 15.6453 45.983 7.13229 37.2642 3.12561Z" fill="#60B7FF"/>
<path d="M25.9992 47.1106C38.5028 47.1106 48.639 37.4352 48.639 25.4999C48.639 13.5646 38.5028 3.88916 25.9992 3.88916C13.4956 3.88916 3.35938 13.5646 3.35938 25.4999C3.35938 37.4352 13.4956 47.1106 25.9992 47.1106Z" fill="#EAF6FF"/>
<path d="M40.4803 8.88733C41.5354 11.5873 42.1135 14.509 42.1135 17.5601C42.1135 31.2668 30.4729 42.3783 16.1135 42.3783C14.4789 42.3783 12.8801 42.2328 11.3291 41.9574C15.2808 45.1703 20.4031 47.1106 26.0008 47.1106C38.5045 47.1106 48.6406 37.4351 48.6406 25.4999C48.6406 18.8216 45.4664 12.8515 40.4803 8.88733Z" fill="#D8ECFE"/>
<path d="M25.6945 12.5329L18.3925 23.7735C18.3043 23.9092 18.3473 24.0874 18.4887 24.1726L25.9377 28.6634C26.0383 28.724 26.1666 28.7232 26.2663 28.6615L33.5132 24.1745C33.6528 24.0881 33.694 23.9105 33.6054 23.7759L26.2116 12.5314C26.0917 12.3493 25.8133 12.35 25.6945 12.5329Z" fill="#60B7FF"/>
<path d="M26.206 32.5523L32.6065 28.7524C32.884 28.5877 33.2016 28.8988 33.0219 29.1593L26.573 38.5099C26.4555 38.6804 26.1954 38.6853 26.0709 38.5194L19.0927 29.2249C18.899 28.9669 19.2166 28.6415 19.4998 28.8077L25.8856 32.5531C25.984 32.6109 26.108 32.6106 26.206 32.5523Z" fill="#60B7FF"/>
</g>
<defs>
<clipPath id="clip0">
<rect width="52" height="49.6364" fill="white" transform="translate(0 0.681763)"/>
</clipPath>
</defs>
</svg>
