<svg width="24" height="24" viewBox="0 0 24 24" fill="none" xmlns="http://www.w3.org/2000/svg">
<path fill-rule="evenodd" clip-rule="evenodd" d="M10.1475 5.20344C10.5805 5.54344 10.8295 6.05044 10.8295 6.59444C10.8295 10.9794 10.9775 12.1594 11.5825 12.6084C11.9795 12.9014 12.5235 12.8984 14.3565 12.8474C15.2085 12.8224 16.2995 12.7904 17.7285 12.7904C18.2985 12.7904 18.8355 13.0344 19.1995 13.4594C19.5375 13.8544 19.6855 14.3704 19.6075 14.8784C18.9395 19.2034 15.2595 22.3444 10.8575 22.3444C5.97349 22.3444 2.00049 18.3714 2.00049 13.4884C2.00049 9.61644 4.92849 5.74444 8.52749 4.85844C9.08949 4.72144 9.69349 4.84944 10.1475 5.20344ZM8.98249 6.30344C8.95049 6.30344 8.91849 6.30744 8.88649 6.31544C5.91649 7.04644 3.50049 10.2644 3.50049 13.4884C3.50049 17.5444 6.80049 20.8444 10.8575 20.8444C14.5145 20.8444 17.5705 18.2394 18.1245 14.6494C18.1285 14.6194 18.1425 14.5324 18.0605 14.4354C17.9825 14.3444 17.8585 14.2904 17.7285 14.2904C16.3175 14.2904 15.2405 14.3224 14.3995 14.3464C12.3635 14.4074 11.5215 14.4304 10.6895 13.8134C9.4998 12.9321 9.34338 11.4504 9.33046 7.29248L9.32949 6.59444C9.32949 6.51044 9.29349 6.44044 9.22149 6.38444C9.15449 6.33144 9.06949 6.30344 8.98249 6.30344ZM20.0509 3.73374C21.8089 5.49074 22.9249 7.79974 22.8929 9.61674C22.8809 10.3257 22.3659 10.9177 21.6699 11.0227C20.3119 11.2277 18.7219 11.2897 17.3149 11.2897C16.0049 11.2897 14.8519 11.2367 14.1889 11.1987C13.3549 11.1497 12.6909 10.4847 12.6429 9.65074C12.5649 8.32874 12.3959 4.96974 12.5159 2.37174C12.5489 1.61674 13.1589 1.01574 13.9049 1.00274C16.0419 0.940742 18.2469 1.93274 20.0509 3.73374ZM14.0329 2.50174H14.0109C13.9009 5.02074 14.0639 8.27474 14.1399 9.56374C14.1439 9.64074 14.1999 9.69674 14.2759 9.70074C15.3039 9.75974 18.8459 9.92374 21.3929 9.54874C21.3989 8.14474 20.4379 6.24074 18.9909 4.79474C17.5069 3.31274 15.7509 2.50174 14.0329 2.50174Z" fill="#8D8598"/>
</svg>
