<svg width="24" height="24" viewBox="0 0 24 24" fill="none" xmlns="http://www.w3.org/2000/svg">
<path fill-rule="evenodd" clip-rule="evenodd" d="M12.6915 2C10.2455 2 8.25551 3.99 8.25551 6.436V7.368C8.25551 7.782 8.59151 8.118 9.00551 8.118C9.41951 8.118 9.75551 7.782 9.75551 7.368V6.436C9.75551 4.816 11.0725 3.5 12.6915 3.5H17.5665C19.1835 3.5 20.4995 4.816 20.4995 6.436V17.565C20.4995 19.184 19.1835 20.5 17.5665 20.5H12.6805C11.0685 20.5 9.75551 19.188 9.75551 17.576V16.633C9.75551 16.219 9.41951 15.883 9.00551 15.883C8.59151 15.883 8.25551 16.219 8.25551 16.633V17.576C8.25551 20.016 10.2415 22 12.6805 22H17.5665C20.0105 22 21.9995 20.011 21.9995 17.565V6.436C21.9995 3.99 20.0105 2 17.5665 2H12.6915ZM4.61141 8.554L1.68341 11.469C1.65729 11.4949 1.6339 11.5219 1.61249 11.5504L1.68341 11.469C1.64798 11.5039 1.61647 11.5421 1.58913 11.5828C1.5771 11.6012 1.56549 11.6203 1.55474 11.6399C1.54601 11.6552 1.53798 11.6712 1.53053 11.6875C1.52422 11.7018 1.51816 11.7162 1.51254 11.7308C1.505 11.7498 1.4984 11.7693 1.49261 11.7891C1.48825 11.8047 1.48423 11.8203 1.48072 11.836C1.47625 11.8551 1.47273 11.8743 1.46997 11.8937C1.4684 11.9063 1.46687 11.9195 1.46569 11.9328C1.4634 11.9556 1.46241 11.9777 1.46241 12L1.46751 12.062L1.46956 12.1017C1.46979 12.1034 1.47003 12.1051 1.47027 12.1068L1.46241 12C1.46241 12.0555 1.46856 12.1105 1.4805 12.1639C1.48423 12.1797 1.48825 12.1953 1.49273 12.2107C1.4984 12.2307 1.505 12.2502 1.5124 12.2695C1.51816 12.2838 1.52422 12.2982 1.5307 12.3123C1.53798 12.3288 1.54601 12.3448 1.55462 12.3605C1.56549 12.3797 1.5771 12.3988 1.58951 12.4172C1.59653 12.4282 1.60423 12.439 1.61223 12.4497C1.63604 12.481 1.66198 12.5104 1.69005 12.5377L4.61141 15.447C4.75741 15.593 4.94941 15.666 5.14041 15.666C5.33241 15.666 5.52541 15.593 5.67141 15.445C5.96341 15.151 5.96241 14.677 5.66941 14.385L4.02951 12.75H14.2537C14.6677 12.75 15.0037 12.414 15.0037 12C15.0037 11.586 14.6677 11.25 14.2537 11.25H4.02751L5.66941 9.616C5.96241 9.324 5.96441 8.85 5.67141 8.556C5.37941 8.262 4.90541 8.262 4.61141 8.554Z" fill="#8D8598"/>
</svg>
