<svg width="21" height="20" viewBox="0 0 21 20" fill="none" xmlns="http://www.w3.org/2000/svg">
<path fill-rule="evenodd" clip-rule="evenodd" d="M9.54253 12.3483L12.59 17.2925C12.7234 17.5091 12.9317 17.5066 13.0159 17.495C13.1 17.4833 13.3025 17.4316 13.3759 17.1858L17.1867 4.31497C17.2534 4.08747 17.1309 3.93247 17.0759 3.87747C17.0225 3.82247 16.87 3.70497 16.6492 3.76747L3.7692 7.53914C3.52503 7.61081 3.4717 7.81581 3.46003 7.89997C3.44837 7.98581 3.44503 8.19831 3.66087 8.33414L8.6617 11.4616L13.08 6.99664C13.3225 6.75164 13.7184 6.74914 13.9642 6.99164C14.21 7.23414 14.2117 7.63081 13.9692 7.87581L9.54253 12.3483ZM12.9509 18.75C12.3709 18.75 11.8392 18.455 11.5259 17.9483L8.29503 12.7058L2.99837 9.39331C2.42753 9.03581 2.1292 8.39914 2.2217 7.72997C2.31337 7.06081 2.77253 6.52914 3.41753 6.33997L16.2975 2.56831C16.89 2.39497 17.525 2.55914 17.9617 2.99414C18.3984 3.43331 18.5609 4.07497 18.3842 4.66997L14.5734 17.54C14.3825 18.1875 13.8492 18.645 13.1817 18.7341C13.1034 18.7441 13.0275 18.75 12.9509 18.75Z" fill="white"/>
</svg>
